<?xml version="1.0" encoding="UTF-8" standalone="no"?>
<!-- Generator: Adobe Illustrator 19.0.0, SVG Export Plug-In . SVG Version: 6.00 Build 0)  -->

<svg
   xmlns:dc="http://purl.org/dc/elements/1.1/"
   xmlns:cc="http://creativecommons.org/ns#"
   xmlns:rdf="http://www.w3.org/1999/02/22-rdf-syntax-ns#"
   xmlns:svg="http://www.w3.org/2000/svg"
   xmlns="http://www.w3.org/2000/svg"
   xmlns:sodipodi="http://sodipodi.sourceforge.net/DTD/sodipodi-0.dtd"
   xmlns:inkscape="http://www.inkscape.org/namespaces/inkscape"
   version="1.1"
   id="Capa_1"
   x="0px"
   y="0px"
   viewBox="0 0 504 230"
   xml:space="preserve"
   inkscape:version="0.91 r13725"
   sodipodi:docname="paypal.svg"
   width="504"
   height="230"><metadata
     id="metadata57"><rdf:RDF><cc:Work
         rdf:about=""><dc:format>image/svg+xml</dc:format><dc:type
           rdf:resource="http://purl.org/dc/dcmitype/StillImage" /><dc:title></dc:title></cc:Work></rdf:RDF></metadata><defs
     id="defs55" /><sodipodi:namedview
     pagecolor="#ffffff"
     bordercolor="#666666"
     borderopacity="1"
     objecttolerance="10"
     gridtolerance="10"
     guidetolerance="10"
     inkscape:pageopacity="0"
     inkscape:pageshadow="2"
     inkscape:window-width="1366"
     inkscape:window-height="744"
     id="namedview53"
     showgrid="false"
     inkscape:zoom="0.46825397"
     inkscape:cx="-8.5423729"
     inkscape:cy="252"
     inkscape:window-x="0"
     inkscape:window-y="24"
     inkscape:window-maximized="1"
     inkscape:current-layer="Capa_1" /><g
     id="g3385"
     transform="matrix(0.9082535,0,0,0.9082535,23.120118,-4.889462)"><path
       inkscape:connector-curvature="0"
       id="path3"
       d="m 389.6,101.2 -27.2,0 c -1.6,0 -3.2,1.6 -4,3.2 l -11.2,70.4 c 0,1.6 0.8,2.4 2.4,2.4 l 14.4,0 c 1.6,0 2.4,-0.8 2.4,-2.4 l 3.2,-20 c 0,-1.6 1.6,-3.2 4,-3.2 l 8.8,0 c 18.4,0 28.8,-8.8 31.2,-26.4 1.6,-7.2 0,-13.6 -3.2,-17.6 -4.8,-4 -12,-6.4 -20.8,-6.4 m 3.2,26.4 c -1.6,9.6 -8.8,9.6 -16,9.6 l -4.8,0 3.2,-18.4 c 0,-0.8 0.8,-1.6 2.4,-1.6 l 1.6,0 c 4.8,0 9.6,0 12,3.2 1.6,0.8 1.6,3.2 1.6,7.2"
       style="fill:#139ad6" /><g
       transform="translate(0,-120)"
       id="g5"><path
         inkscape:connector-curvature="0"
         id="path7"
         d="m 193.6,221.2 -27.2,0 c -1.6,0 -3.2,1.6 -4,3.2 l -11.2,70.4 c 0,1.6 0.8,2.4 2.4,2.4 l 12.8,0 c 1.6,0 3.2,-1.6 4,-3.2 l 3.2,-19.2 c 0,-1.6 1.6,-3.2 4,-3.2 l 8.8,0 c 18.4,0 28.8,-8.8 31.2,-26.4 1.6,-7.2 0,-13.6 -3.2,-17.6 -4.8,-4 -11.2,-6.4 -20.8,-6.4 m 3.2,26.4 c -1.6,9.6 -8.8,9.6 -16,9.6 l -4,0 3.2,-18.4 c 0,-0.8 0.8,-1.6 2.4,-1.6 l 1.6,0 c 4.8,0 9.6,0 12,3.2 0.8,0.8 1.6,3.2 0.8,7.2"
         style="fill:#263b80" /><path
         inkscape:connector-curvature="0"
         id="path9"
         d="m 276,246.8 -12.8,0 c -0.8,0 -2.4,0.8 -2.4,1.6 l -0.8,4 -0.8,-1.6 c -3.2,-4 -8.8,-5.6 -15.2,-5.6 -14.4,0 -27.2,11.2 -29.6,26.4 -1.6,8 0.8,15.2 4.8,20 4,4.8 9.6,6.4 16.8,6.4 12,0 18.4,-7.2 18.4,-7.2 l -0.8,4 c 0,1.6 0.8,2.4 2.4,2.4 l 12,0 c 1.6,0 3.2,-1.6 4,-3.2 l 7.2,-44.8 c -0.8,-0.8 -2.4,-2.4 -3.2,-2.4 m -18.4,25.6 c -1.6,7.2 -7.2,12.8 -15.2,12.8 -4,0 -7.2,-1.6 -8.8,-3.2 -1.6,-2.4 -2.4,-5.6 -2.4,-9.6 0.8,-7.2 7.2,-12.8 14.4,-12.8 4,0 6.4,1.6 8.8,3.2 2.4,2.4 3.2,6.4 3.2,9.6"
         style="fill:#263b80" /></g><path
       inkscape:connector-curvature="0"
       id="path11"
       d="m 471.2,126.8 -12.8,0 c -0.8,0 -2.4,0.8 -2.4,1.6 l -0.8,4 -0.8,-1.6 c -3.2,-4 -8.8,-5.6 -15.2,-5.6 -14.4,0 -27.2,11.2 -29.6,26.4 -1.6,8 0.8,15.2 4.8,20 4,4.8 9.6,6.4 16.8,6.4 12,0 18.4,-7.2 18.4,-7.2 l -0.8,4 c 0,1.6 0.8,2.4 2.4,2.4 l 12,0 c 1.6,0 3.2,-1.6 4,-3.2 l 7.2,-44.8 c -0.8,-0.8 -1.6,-2.4 -3.2,-2.4 m -18.4,25.6 c -1.6,7.2 -7.2,12.8 -15.2,12.8 -4,0 -7.2,-1.6 -8.8,-3.2 -1.6,-2.4 -2.4,-5.6 -2.4,-9.6 0.8,-7.2 7.2,-12.8 14.4,-12.8 4,0 6.4,1.6 8.8,3.2 3.2,2.4 4,6.4 3.2,9.6"
       style="fill:#139ad6" /><path
       inkscape:connector-curvature="0"
       id="path13"
       d="m 345.6,126.8 -13.6,0 c -1.6,0 -2.4,0.8 -3.2,1.6 l -17.6,27.2 -8,-25.6 c -0.8,-1.6 -1.6,-2.4 -4,-2.4 l -12.8,0 c -1.6,0 -2.4,1.6 -2.4,3.2 l 14.4,42.4 -13.6,19.2 c -0.8,1.6 0,4 1.6,4 l 12.8,0 c 1.6,0 2.4,-0.8 3.2,-1.6 l 44,-63.2 c 2.4,-2.4 0.8,-4.8 -0.8,-4.8"
       style="fill:#263b80" /><path
       inkscape:connector-curvature="0"
       id="path15"
       d="m 486.4,103.6 -11.2,72 c 0,1.6 0.8,2.4 2.4,2.4 l 11.2,0 c 1.6,0 3.2,-1.6 4,-3.2 L 504,104.4 c 0,-1.6 -0.8,-2.4 -2.4,-2.4 l -12.8,0 c -0.8,-0.8 -1.6,0 -2.4,1.6"
       style="fill:#139ad6" /><path
       inkscape:connector-curvature="0"
       id="path17"
       d="M 92,77.2 C 86.4,70.8 76,67.6 61.6,67.6 l -40,0 c -2.4,0 -4.8,2.4 -5.6,4.8 L 0,177.2 c 0,2.4 1.6,4 3.2,4 l 24.8,0 6.4,-39.2 0,1.6 c 0.8,-2.4 3.2,-4.8 5.6,-4.8 l 12,0 c 23.2,0 40.8,-9.6 46.4,-36 0,-0.8 0,-1.6 0,-2.4 -0.8,0 -0.8,0 0,0 C 99.2,90 97.6,83.6 92,77.2"
       style="fill:#263b80" /><path
       inkscape:connector-curvature="0"
       id="path19"
       d="m 97.6,100.4 0,0 c 0,0.8 0,1.6 0,2.4 -5.6,27.2 -23.2,36 -46.4,36 l -12,0 c -2.4,0 -4.8,2.4 -5.6,4.8 l -8,48.8 c 0,1.6 0.8,3.2 3.2,3.2 l 20.8,0 c 2.4,0 4.8,-1.6 4.8,-4 l 0,-0.8 4,-24.8 0,-1.6 c 0,-2.4 2.4,-4 4.8,-4 l 3.2,0 c 20,0 36,-8 40,-32 1.6,-9.6 0.8,-18.4 -4,-24 -0.8,-1.6 -2.4,-3.2 -4.8,-4"
       style="fill:#139ad6" /><path
       inkscape:connector-curvature="0"
       id="path21"
       d="m 92,98 c -0.8,0 -1.6,-0.8 -2.4,-0.8 -0.8,0 -1.6,0 -2.4,-0.8 C 84,95.6 80.8,95.6 76.8,95.6 l -31.2,0 c -0.8,0 -1.6,0 -2.4,0.8 -1.6,0.8 -2.4,2.4 -2.4,4 l -6.4,41.6 0,1.6 c 0.8,-2.4 3.2,-4.8 5.6,-4.8 l 12,0 c 23.2,0 40.8,-9.6 46.4,-36 0,-0.8 0,-1.6 0.8,-2.4 -1.6,-0.8 -2.4,-1.6 -4,-1.6 C 92.8,98 92.8,98 92,98"
       style="fill:#232c65" /></g><g
     id="g23"
     transform="translate(0,-274)" /><g
     id="g25"
     transform="translate(0,-274)" /><g
     id="g27"
     transform="translate(0,-274)" /><g
     id="g29"
     transform="translate(0,-274)" /><g
     id="g31"
     transform="translate(0,-274)" /><g
     id="g33"
     transform="translate(0,-274)" /><g
     id="g35"
     transform="translate(0,-274)" /><g
     id="g37"
     transform="translate(0,-274)" /><g
     id="g39"
     transform="translate(0,-274)" /><g
     id="g41"
     transform="translate(0,-274)" /><g
     id="g43"
     transform="translate(0,-274)" /><g
     id="g45"
     transform="translate(0,-274)" /><g
     id="g47"
     transform="translate(0,-274)" /><g
     id="g49"
     transform="translate(0,-274)" /><g
     id="g51"
     transform="translate(0,-274)" /></svg>