<?xml version="1.0" encoding="UTF-8" standalone="no"?>
<!-- Generator: Adobe Illustrator 19.0.0, SVG Export Plug-In . SVG Version: 6.00 Build 0)  -->

<svg
   xmlns:dc="http://purl.org/dc/elements/1.1/"
   xmlns:cc="http://creativecommons.org/ns#"
   xmlns:rdf="http://www.w3.org/1999/02/22-rdf-syntax-ns#"
   xmlns:svg="http://www.w3.org/2000/svg"
   xmlns="http://www.w3.org/2000/svg"
   xmlns:sodipodi="http://sodipodi.sourceforge.net/DTD/sodipodi-0.dtd"
   xmlns:inkscape="http://www.inkscape.org/namespaces/inkscape"
   version="1.1"
   id="Capa_1"
   x="0px"
   y="0px"
   viewBox="0 0 530 308"
   xml:space="preserve"
   inkscape:version="0.91 r13725"
   sodipodi:docname="visa.svg"
   width="530"
   height="308"><metadata
     id="metadata69"><rdf:RDF><cc:Work
         rdf:about=""><dc:format>image/svg+xml</dc:format><dc:type
           rdf:resource="http://purl.org/dc/dcmitype/StillImage" /><dc:title></dc:title></cc:Work></rdf:RDF></metadata><defs
     id="defs67" /><sodipodi:namedview
     pagecolor="#ffffff"
     bordercolor="#666666"
     borderopacity="1"
     objecttolerance="10"
     gridtolerance="10"
     guidetolerance="10"
     inkscape:pageopacity="0"
     inkscape:pageshadow="2"
     inkscape:window-width="1366"
     inkscape:window-height="744"
     id="namedview65"
     showgrid="false"
     inkscape:zoom="0.46825397"
     inkscape:cx="-8.5423729"
     inkscape:cy="252"
     inkscape:window-x="0"
     inkscape:window-y="24"
     inkscape:window-maximized="1"
     inkscape:current-layer="Capa_1" /><g
     id="g3397"
     transform="translate(13,43)"><polygon
       transform="translate(0,-141)"
       id="polygon3"
       points="210.4,180.4 250.4,180.4 225.6,324.4 184.8,324.4 "
       style="fill:#3c58bf" /><polygon
       transform="translate(0,-141)"
       id="polygon5"
       points="217.6,180.4 250.4,180.4 225.6,324.4 184.8,324.4 "
       style="fill:#293688" /><path
       inkscape:connector-curvature="0"
       id="path7"
       d="m 370.4,41 c -8,-3.2 -20.8,-6.4 -36.8,-6.4 -40,0 -68.8,20 -68.8,48.8 0,21.6 20,32.8 36,40 16,7.2 20.8,12 20.8,18.4 0,9.6 -12.8,14.4 -24,14.4 -16,0 -24.8,-2.4 -38.4,-8 l -5.6,-2.4 -5.6,32.8 c 9.6,4 27.2,8 45.6,8 42.4,0 70.4,-20 70.4,-50.4 0,-16.8 -10.4,-29.6 -34.4,-40 C 315.2,89 306.4,85 306.4,77.8 c 0,-6.4 7.2,-12.8 23.2,-12.8 13.6,0 23.2,2.4 30.4,5.6 l 4,1.6 6.4,-31.2 0,0 z"
       style="fill:#3c58bf" /><path
       inkscape:connector-curvature="0"
       id="path9"
       d="m 370.4,41 c -8,-3.2 -20.8,-6.4 -36.8,-6.4 -40,0 -61.6,20 -61.6,48.8 0,21.6 12.8,32.8 28.8,40 16,7.2 20.8,12 20.8,18.4 0,9.6 -12.8,14.4 -24,14.4 -16,0 -24.8,-2.4 -38.4,-8 l -5.6,-2.4 -5.6,32.8 c 9.6,4 27.2,8 45.6,8 42.4,0 70.4,-20 70.4,-50.4 0,-16.8 -10.4,-29.6 -34.4,-40 C 315.2,89 306.4,85 306.4,77.8 c 0,-6.4 7.2,-12.8 23.2,-12.8 13.6,0 23.2,2.4 30.4,5.6 l 4,1.6 6.4,-31.2 0,0 z"
       style="fill:#293688" /><path
       inkscape:connector-curvature="0"
       id="path11"
       d="m 439.2,39.4 c -9.6,0 -16.8,0.8 -20.8,10.4 l -60,133.6 43.2,0 8,-24 51.2,0 4.8,24 38.4,0 -33.6,-144 -31.2,0 z m -18.4,96 c 2.4,-7.2 16,-42.4 16,-42.4 0,0 3.2,-8.8 5.6,-14.4 l 2.4,13.6 c 0,0 8,36 9.6,44 l -33.6,0 0,-0.8 z"
       style="fill:#3c58bf" /><path
       inkscape:connector-curvature="0"
       id="path13"
       d="m 448.8,39.4 c -9.6,0 -16.8,0.8 -20.8,10.4 l -69.6,133.6 43.2,0 8,-24 51.2,0 4.8,24 38.4,0 -33.6,-144 -21.6,0 z m -28,96 c 3.2,-8 16,-42.4 16,-42.4 0,0 3.2,-8.8 5.6,-14.4 l 2.4,13.6 c 0,0 8,36 9.6,44 l -33.6,0 0,-0.8 z"
       style="fill:#293688" /><path
       inkscape:connector-curvature="0"
       id="path15"
       d="m 111.2,140.2 -4,-20.8 C 100,95.4 76.8,69 51.2,56.2 l 36,128 43.2,0 64.8,-144 -43.2,0 -40.8,100 z"
       style="fill:#3c58bf" /><path
       inkscape:connector-curvature="0"
       id="path17"
       d="m 111.2,140.2 -4,-20.8 C 100,95.4 76.8,69 51.2,56.2 l 36,128 43.2,0 64.8,-144 -35.2,0 -48.8,100 z"
       style="fill:#293688" /><path
       inkscape:connector-curvature="0"
       id="path19"
       d="M 0,39.4 7.2,41 c 51.2,12 86.4,42.4 100,78.4 l -14.4,-68 c -2.4,-9.6 -9.6,-12 -18.4,-12 L 0,39.4 Z"
       style="fill:#ffbc00" /><path
       inkscape:connector-curvature="0"
       id="path21"
       d="m 0,39.4 0,0 c 51.2,12 93.6,43.2 107.2,79.2 L 93.6,61.8 C 91.2,52.2 83.2,46.6 74.4,46.6 L 0,39.4 Z"
       style="fill:#f7981d" /><path
       inkscape:connector-curvature="0"
       id="path23"
       d="m 0,39.4 0,0 c 51.2,12 93.6,43.2 107.2,79.2 L 97.6,87.4 C 95.2,77.8 92,68.2 80.8,64.2 L 0,39.4 Z"
       style="fill:#ed7c00" /><g
       transform="translate(0,-141)"
       id="g25"><path
         inkscape:connector-curvature="0"
         id="path27"
         d="m 151.2,276.4 -27.2,-27.2 -12.8,30.4 -3.2,-20 c -7.2,-24 -30.4,-50.4 -56,-63.2 l 36,128 43.2,0 20,-48 z"
         style="fill:#051244" /><polygon
         id="polygon29"
         points="225.6,324.4 191.2,289.2 184.8,324.4 "
         style="fill:#051244" /><path
         inkscape:connector-curvature="0"
         id="path31"
         d="m 317.6,274.8 0,0 c 3.2,3.2 4.8,5.6 4,8.8 0,9.6 -12.8,14.4 -24,14.4 -16,0 -24.8,-2.4 -38.4,-8 l -5.6,-2.4 -5.6,32.8 c 9.6,4 27.2,8 45.6,8 25.6,0 46.4,-7.2 58.4,-20 l -34.4,-33.6 z"
         style="fill:#051244" /><path
         inkscape:connector-curvature="0"
         id="path33"
         d="m 364,324.4 37.6,0 8,-24 51.2,0 4.8,24 38.4,0 -13.6,-58.4 -48,-46.4 2.4,12.8 c 0,0 8,36 9.6,44 l -33.6,0 c 3.2,-8 16,-42.4 16,-42.4 0,0 3.2,-8.8 5.6,-14.4"
         style="fill:#051244" /></g></g><g
     id="g35"
     transform="translate(0,-196)" /><g
     id="g37"
     transform="translate(0,-196)" /><g
     id="g39"
     transform="translate(0,-196)" /><g
     id="g41"
     transform="translate(0,-196)" /><g
     id="g43"
     transform="translate(0,-196)" /><g
     id="g45"
     transform="translate(0,-196)" /><g
     id="g47"
     transform="translate(0,-196)" /><g
     id="g49"
     transform="translate(0,-196)" /><g
     id="g51"
     transform="translate(0,-196)" /><g
     id="g53"
     transform="translate(0,-196)" /><g
     id="g55"
     transform="translate(0,-196)" /><g
     id="g57"
     transform="translate(0,-196)" /><g
     id="g59"
     transform="translate(0,-196)" /><g
     id="g61"
     transform="translate(0,-196)" /><g
     id="g63"
     transform="translate(0,-196)" /></svg>